PathFileType	3	(X/Y/Z)	D:\minhoCalibration\240510\subject2_KPNP\preferred\preferred03.trc
DataRate	CameraRate	NumFrames	NumMarkers	Units	OrigDataRate	OrigDataStartFrame	OrigNumFrames
200.0	200.0	36	10	mm	200.0	438	186	
Frame#	Time	Left_Ankle_Outer1			Left_Ankle_Inner1			Left_Knee_Outer1			Left_Knee_Inner1			Left_Wrist1			Right_Wrist1			Right_Knee_Inner1			Right_Knee_Outer1			Right_Ankle_Inner1			Right_Ankle_Outer1			
		X1	Y1	Z1	X2	Y2	Z2	X3	Y3	Z3	X4	Y4	Z4	X5	Y5	Z5	X6	Y6	Z6	X7	Y7	Z7	X8	Y8	Z8	X9	Y9	Z9	X10	Y10	Z10	
438	2.18	-543.31415	114.79633	-772.32703	-559.96045	121.50842	-721.23254	-336.88687	517.82861	-764.36786	-386.40683	504.80472	-683.39496	-320.57297	1003.5551	-813.19263	-620.75677	1045.8892	-651.89258	-499.50839	572.64777	-432.86475	-587.67194	608.59235	-416.9183	-590.81549	261.16458	-685.72388	-688.724	279.64423	-676.89044
439	2.185	-543.82703	113.84679	-772.48145	-558.70007	122.32483	-717.72375	-337.32047	516.84497	-763.60376	-387.2706	503.79956	-682.87561	-320.39908	1002.8354	-812.013	-621.97943	1043.0298	-653.74152	-507.05011	564.71906	-443.10794	-595.16675	600.2453	-429.4758	-595.07123	250.57465	-700.13367	-690.31354	272.61899	-691.78314
440	2.19	-544.26465	112.91011	-772.59991	-561.17853	119.36574	-721.40216	-337.84262	515.71503	-762.45245	-388.38449	502.84464	-682.08948	-319.61301	1001.9899	-810.7149	-623.49756	1040.348	-655.586	-514.55011	557.11115	-453.48599	-603.2807	593.36975	-438.75046	-596.16296	242.91014	-713.02667	-691.90234	265.30774	-706.52997
441	2.195	-544.67999	111.92397	-772.58081	-560.14972	119.41309	-719.82178	-337.87177	514.63013	-761.04462	-389.65536	501.94473	-681.2182	-319.30554	1001.0328	-809.3418	-624.68567	1037.5995	-657.44708	-522.1991	549.80878	-464.00018	-610.97815	585.97522	-451.38724	-596.48468	235.49097	-724.35522	-692.96918	258.00006	-721.33441
442	2.2	-545.02252	111.04767	-772.58435	-560.60858	118.76212	-719.67395	-337.70105	513.5072	-759.45825	-390.97675	501.06375	-680.33984	-319.13129	1000.1916	-807.96588	-626.16565	1035.2531	-659.37817	-529.36536	543.07062	-474.11542	-618.53876	578.99512	-464.23868	-597.64783	227.97832	-735.98004	-693.50629	251.14325	-736.93335
443	2.205	-545.40771	110.10294	-772.43872	-563.07892	116.18992	-722.8562	-337.57932	512.35327	-757.52423	-392.3595	500.25623	-679.42004	-318.93686	999.37683	-806.87909	-627.90826	1032.8749	-661.32434	-536.76776	536.09479	-485.32037	-625.86627	572.46515	-477.29636	-598.93121	220.61958	-747.80676	-695.00208	244.19157	-750.34253
444	2.21	-545.74951	109.28184	-772.29572	-563.29663	115.84988	-721.26642	-336.64188	511.48105	-755.80511	-393.74072	499.47983	-678.56421	-320.58163	998.31586	-804.61261	-629.23755	1030.441	-663.17047	-543.98553	529.80969	-496.30133	-632.9635	566.31201	-490.58395	-599.29431	214.00026	-758.60846	-695.74835	237.58353	-764.55615
445	2.215	-546.12537	108.47613	-772.19025	-562.73657	115.8175	-719.22894	-335.9017	510.49036	-753.86633	-394.98682	498.81625	-677.73822	-320.78445	997.48047	-803.60248	-630.4328	1027.7827	-665.19696	-551.0578	524.0401	-507.50183	-639.8056	560.6507	-504.0936	-600.41339	207.35918	-768.85846	-696.40564	230.89082	-778.56262
446	2.22	-546.35999	107.71747	-772.17242	-564.07037	114.14758	-720.8963	-335.1684	509.57303	-752.15631	-396.11316	498.22501	-676.86609	-320.87289	996.94147	-802.80927	-632.43768	1025.399	-667.12347	-557.93964	518.64166	-518.69403	-646.38599	555.33862	-517.58716	-602.41284	199.8036	-778.71069	-696.68811	225.02348	-792.55658
447	2.225	-546.59784	106.96965	-772.2337	-564.30627	113.53191	-720.97961	-334.68942	508.59702	-750.46918	-396.90158	497.60263	-676.12787	-321.21609	996.35522	-801.82416	-633.54419	1023.0812	-669.63385	-564.02313	513.59094	-530.01685	-652.56207	550.4339	-531.01013	-603.06213	193.38335	-789.30798	-697.82959	218.8965	-804.75348
448	2.23	-546.76984	106.23737	-772.46039	-564.72675	112.7843	-721.19873	-333.97525	507.77643	-749.06165	-397.36404	496.96857	-675.42981	-321.06851	996.15399	-800.98657	-634.62366	1020.5938	-672.02075	-570.78961	509.07993	-541.18335	-658.56641	545.81934	-544.80109	-604.05713	187.62016	-799.81805	-697.33911	213.80273	-818.7702
449	2.235	-546.91345	105.45866	-772.87286	-564.94531	112.09049	-721.46997	-333.29285	506.93005	-747.92236	-397.67224	496.28693	-674.6629	-321.54663	995.53387	-799.77032	-636.25537	1018.3702	-674.55969	-576.76086	504.95911	-552.26459	-664.10065	541.53833	-558.44489	-604.97394	181.95877	-809.71863	-697.38593	208.85942	-831.50928
450	2.24	-546.90723	104.67465	-773.44934	-564.50269	112.20214	-720.38916	-332.72351	506.08157	-746.93835	-397.4783	495.66608	-674.01361	-321.38589	995.34674	-798.72723	-637.74072	1015.6834	-677.56842	-581.90314	501.18561	-563.35498	-669.336	537.68195	-571.87756	-605.9942	176.69386	-819.51355	-697.60004	204.00887	-843.96863
451	2.245	-546.36169	104.10986	-774.74493	-565.84552	110.53077	-722.82812	-332.2254	505.13177	-746.10162	-397.07187	494.78232	-673.34125	-321.50067	994.98505	-797.41376	-639.61035	1013.5282	-680.55603	-587.48761	498.08273	-574.30518	-674.11639	534.37439	-585.08575	-606.82263	171.93965	-829.33783	-697.74121	199.5831	-855.99689
452	2.25	-547.34796	102.72427	-774.52002	-565.01721	110.6006	-721.88232	-331.64505	504.25659	-745.39899	-396.44116	493.78906	-672.65137	-321.70978	994.57092	-795.97192	-641.65271	1011.6555	-683.677	-592.30988	495.23071	-585.08344	-678.44342	531.27783	-597.80353	-607.40582	167.50113	-838.9967	-697.79962	195.37436	-867.68109
453	2.255	-547.19391	102.07272	-775.40118	-566.16241	109.08765	-724.19922	-331.08099	503.39951	-744.71906	-395.64102	492.91101	-671.98602	-321.86313	994.24139	-794.39001	-643.78662	1009.6479	-687.32062	-596.5484	492.28442	-595.3493	-682.51843	529.14502	-610.51935	-607.91443	163.73186	-848.62183	-697.98718	191.66245	-878.83252
454	2.26	-547.06006	101.58146	-776.32391	-566.38684	108.68014	-725.1131	-330.46411	502.55417	-744.01398	-394.77649	491.83722	-671.20288	-322.49359	993.78784	-792.5415	-646.44794	1007.8121	-691.01135	-600.76984	490.30807	-605.82776	-686.19965	527.18182	-622.44983	-608.63037	160.12543	-857.9281	-698.08264	188.1671	-889.61359
455	2.265	-546.8183	101.09365	-777.1416	-566.40533	108.2174	-725.98517	-329.79434	501.92572	-743.10864	-393.90048	490.97794	-670.31885	-322.89038	993.4549	-790.74188	-648.93634	1005.9938	-695.04913	-604.90564	488.48038	-616.22437	-690.02618	524.1925	-635.27106	-609.28864	156.97545	-866.99957	-698.11633	184.78239	-900.09271
456	2.27	-546.50189	100.82678	-778.01727	-566.67706	107.94467	-726.9361	-329.13559	501.16904	-742.04883	-393.07605	490.20877	-669.41772	-323.6557	993.01489	-788.81537	-651.18555	1004.4697	-699.09521	-608.65552	486.91696	-626.17853	-692.63599	523.21082	-647.13776	-609.60553	154.04909	-875.87042	-698.11652	181.60074	-910.23181
457	2.275	-546.06726	100.66444	-778.81519	-566.75354	107.81385	-727.94135	-328.03491	500.66687	-740.81927	-392.3389	489.46008	-668.36584	-324.17365	992.72614	-787.03339	-653.51288	1002.8394	-704.08557	-612.31812	485.56494	-636.18402	-695.6825	519.57239	-664.52368	-609.75458	151.31174	-884.50214	-697.92877	178.55392	-920.00336
458	2.28	-545.62152	100.58961	-779.5564	-566.5686	107.62115	-728.92834	-326.98859	500.26453	-739.26654	-391.7063	488.96204	-667.28296	-325.36551	992.1748	-785.06598	-655.92084	1001.4916	-708.29633	-615.94983	484.21521	-646.11389	-698.56366	518.10468	-675.93329	-609.72729	148.88402	-892.71344	-697.4469	175.67902	-929.38635
459	2.285	-545.13641	100.64619	-780.1748	-566.39868	107.71915	-729.60168	-325.87625	499.95325	-737.44531	-391.24072	488.6897	-666.05145	-326.13336	991.9436	-783.26062	-658.32782	1000.0982	-712.98328	-619.27112	482.20383	-657.58832	-701.23853	516.74738	-686.8009	-609.60913	146.51662	-900.65295	-696.89551	172.93211	-938.2738
460	2.29	-544.39514	100.8553	-780.86554	-566.27332	107.81453	-730.37177	-324.62039	499.84344	-735.43799	-391.06042	488.57339	-664.75177	-327.34818	991.5025	-781.521	-660.78113	998.51514	-718.87335	-622.70892	481.19586	-666.18225	-703.94073	515.52618	-697.31708	-609.13531	144.45602	-908.28827	-696.32874	170.22379	-946.92346
461	2.295	-543.71625	101.10739	-781.42822	-565.8161	108.029	-731.21027	-323.44791	499.78024	-733.24017	-390.93582	488.65503	-663.38757	-328.61697	991.19019	-779.94922	-663.43665	997.0946	-722.81262	-625.74542	480.00409	-675.51514	-706.42505	514.40143	-707.59143	-608.77167	142.41632	-915.32007	-695.6076	167.582	-954.99231
462	2.3	-543.07562	101.38978	-781.92773	-565.68719	108.28661	-732.01538	-322.31674	499.83563	-730.95538	-390.96466	488.91617	-662.04742	-330.11044	990.94196	-778.54034	-665.91211	995.5968	-728.03564	-628.59467	479.00836	-684.78406	-708.96552	515.95996	-709.87878	-608.55804	140.27173	-921.86151	-694.78265	165.20354	-962.8844
463	2.305	-542.4118	101.75861	-782.50262	-565.3479	108.562	-732.43829	-321.23318	499.98077	-728.61359	-391.36459	489.16187	-660.69739	-331.65167	990.65082	-777.24286	-668.17322	994.45984	-732.93018	-631.24023	477.98288	-693.73956	-710.51642	512.60144	-728.31134	-608.25568	138.14297	-928.12811	-694.08575	162.36674	-969.90771
464	2.31	-541.67352	102.16845	-783.15814	-565.08789	108.90274	-733.28497	-319.9707	500.20981	-726.32294	-391.7468	489.47574	-659.31049	-333.36285	990.45422	-776.10168	-670.53027	992.98895	-738.45239	-633.53448	477.08282	-702.65173	-712.62335	511.63101	-736.67487	-607.83215	136.09299	-933.98431	-693.52905	159.8717	-976.78235
465	2.315	-541.10022	102.588	-783.76617	-564.92468	109.2147	-734.16968	-319.02496	500.51028	-724.01807	-392.32077	489.82193	-658.13959	-334.95764	990.39044	-775.21515	-672.80048	991.99158	-742.2359	-636.06793	476.4866	-711.98065	-713.53693	510.91754	-747.48505	-607.70959	133.99953	-939.3158	-693.08307	157.05481	-982.82684
466	2.32	-540.45148	102.96992	-784.35565	-564.70325	109.59238	-734.64331	-318.1683	500.70065	-721.77551	-392.9834	490.13928	-657.04395	-336.8306	990.29901	-774.44135	-674.97687	990.59528	-748.34033	-637.74866	475.88171	-720.27124	-714.88525	510.43213	-756.38104	-607.69019	131.80998	-944.34668	-692.87756	154.16933	-988.45239
467	2.325	-539.73187	103.36306	-785.15973	-564.02899	110.01643	-735.52155	-317.67621	501.04041	-719.73816	-393.71341	490.39691	-655.91016	-338.58554	990.36487	-773.90857	-676.99445	989.5271	-753.70892	-639.30164	475.33771	-728.67084	-715.97559	509.86801	-765.26508	-607.73077	129.55867	-948.91559	-692.88983	151.34641	-993.24261
468	2.33	-539.05157	103.79184	-786.04047	-562.80444	112.10181	-732.07684	-317.2005	501.37692	-717.80756	-394.61642	490.41312	-656.6767	-340.29626	990.50409	-773.60626	-678.97314	988.63892	-758.0827	-640.44977	474.92316	-736.81458	-717.20807	509.52005	-773.96027	-607.79272	127.30264	-952.80408	-693.10846	148.2498	-997.37823
469	2.335	-538.3656	104.03372	-786.85205	-563.68567	110.33249	-737.78357	-316.72598	502.00397	-716.21875	-395.33594	490.67667	-655.75531	-342.14798	990.67572	-773.39062	-680.89178	987.56604	-763.92236	-641.32159	474.72775	-744.96741	-718.1123	508.44144	-783.02563	-608.13251	124.80256	-956.12701	-693.44202	145.08282	-1000.8176
470	2.34	-537.68805	104.28048	-787.79681	-562.35211	112.69929	-733.55975	-316.62155	502.31989	-714.66211	-395.79535	491.07059	-653.55157	-343.93088	990.84052	-773.41638	-682.83978	986.72852	-767.86078	-641.90662	474.81006	-753.12427	-718.2204	508.59839	-790.46411	-608.50806	122.44664	-958.71771	-693.90851	141.72459	-1003.5318
471	2.345	-537.03271	104.47488	-788.78064	-561.64252	112.6472	-736.35345	-316.63464	502.79324	-713.41406	-396.30988	491.15118	-653.04694	-345.64832	991.11414	-773.62634	-684.71533	985.87109	-772.60803	-642.14191	474.83389	-760.94104	-718.93323	508.43698	-798.35889	-608.99695	119.93705	-960.51538	-694.44147	138.3317	-1005.6257
472	2.35	-536.55298	104.64337	-789.75177	-563.10339	110.43295	-741.53546	-316.75137	503.25845	-712.34814	-397.14731	491.56406	-652.15582	-347.64902	991.31403	-773.93787	-686.5531	985.11096	-777.40979	-642.25592	475.26465	-768.49329	-718.92859	508.10104	-806.66058	-609.59503	117.42257	-962.02698	-695.13208	134.91302	-1007.1874
473	2.355	-536.05005	104.6936	-790.8363	-561.86603	112.58839	-737.84253	-317.09229	503.76837	-711.29608	-397.99881	491.43555	-653.38965	-349.44077	991.50647	-774.4115	-688.4118	984.25104	-782.76849	-642.48877	476.0368	-776.09778	-719.31537	507.63452	-814.38873	-610.36212	114.96824	-963.38062	-695.8418	131.78372	-1008.6174
